<svg width="200" height="200" viewBox="0 0 200 200" xmlns="http://www.w3.org/2000/svg">
  <defs>
    <linearGradient id="gold-w" x1="0" y1="0" x2="0" y2="1">
      <stop offset="0%" stop-color="#E8B770"/>
      <stop offset="100%" stop-color="#C8924A"/>
    </linearGradient>
  </defs>
  <rect x="44" y="95" width="112" height="68" rx="3" fill="white"/>
  <path d="M32 100 L100 42 L168 100 Z" fill="white"/>
  <rect x="118" y="52" width="12" height="28" rx="2" fill="rgba(255,255,255,0.7)"/>
  <rect x="116" y="50" width="16" height="5" rx="2" fill="rgba(255,255,255,0.5)"/>
  <rect x="52" y="106" width="26" height="22" rx="3" fill="url(#gold-w)"/>
  <line x1="65" y1="106" x2="65" y2="128" stroke="white" stroke-width="1.5" opacity="0.4"/>
  <line x1="52" y1="117" x2="78" y2="117" stroke="white" stroke-width="1.5" opacity="0.4"/>
  <rect x="122" y="106" width="26" height="22" rx="3" fill="url(#gold-w)"/>
  <line x1="135" y1="106" x2="135" y2="128" stroke="white" stroke-width="1.5" opacity="0.4"/>
  <line x1="122" y1="117" x2="148" y2="117" stroke="white" stroke-width="1.5" opacity="0.4"/>
  <path d="M85 163 L85 136 Q85 122 100 122 Q115 122 115 136 L115 163 Z" fill="url(#gold-w)"/>
  <path d="M38 168 Q58 162 78 168 Q98 174 118 168 Q138 162 162 168" fill="none" stroke="url(#gold-w)" stroke-width="2.5" stroke-linecap="round" opacity="0.8"/>
  <path d="M44 176 Q64 170 84 176 Q104 182 124 176 Q144 170 158 176" fill="none" stroke="url(#gold-w)" stroke-width="1.5" stroke-linecap="round" opacity="0.5"/>
  <path d="M88 80 L100 68 L112 80 L112 90 L88 90 Z" fill="rgba(255,255,255,0.85)"/>
  <rect x="91" y="80" width="18" height="10" rx="1" fill="url(#gold-w)" opacity="0.9"/>
</svg>
